<svg width="18" height="23" viewBox="0 0 18 23" fill="none" xmlns="http://www.w3.org/2000/svg">
<path d="M4.36281 15.8735C3.97245 15.4931 4.17594 15.6003 3.2344 15.3548C2.8072 15.2432 2.43166 15.0287 2.09206 14.7717L0.0539939 19.641C-0.143209 20.1124 0.225143 20.6245 0.747125 20.6053L3.11401 20.5173L4.74195 22.1929C5.10132 22.5623 5.73201 22.4472 5.92921 21.9758L8.26735 16.3896C7.7804 16.6539 7.24 16.8089 6.68119 16.8089C5.80523 16.8089 4.98227 16.4767 4.36281 15.8735ZM17.1958 19.641L15.1578 14.7717C14.8182 15.0291 14.4426 15.2432 14.0154 15.3548C13.069 15.6017 13.2765 15.494 12.887 15.8735C12.2676 16.4767 11.4442 16.8089 10.5682 16.8089C10.0094 16.8089 9.46898 16.6535 8.98204 16.3896L11.3202 21.9758C11.5174 22.4472 12.1485 22.5623 12.5074 22.1929L14.1358 20.5173L16.5027 20.6053C17.0247 20.6245 17.393 20.112 17.1958 19.641ZM11.8143 14.8829C12.5007 14.2023 12.5793 14.2609 13.5568 14.0013C14.1807 13.8355 14.6686 13.3518 14.8357 12.7328C15.1717 11.4897 15.0846 11.6398 16.0014 10.7302C16.4582 10.2772 16.6366 9.61668 16.4695 8.99774C16.1339 7.75548 16.1335 7.92882 16.4695 6.68525C16.6366 6.06631 16.4582 5.40579 16.0014 4.95275C15.0846 4.04316 15.1717 4.19286 14.8357 2.95017C14.6686 2.33123 14.1807 1.84754 13.5568 1.68165C12.3044 1.34854 12.4553 1.43565 11.5376 0.52562C11.0807 0.0725772 10.4146 -0.1047 9.79062 0.0611964C8.53867 0.393866 8.71341 0.394303 7.45922 0.0611964C6.83527 -0.1047 6.16909 0.0721395 5.71224 0.52562C4.7954 1.43521 4.94634 1.34854 3.69349 1.68165C3.06954 1.84754 2.5817 2.33123 2.41459 2.95017C2.07903 4.19286 2.16573 4.04316 1.24889 4.95275C0.792046 5.40579 0.61326 6.06631 0.780815 6.68525C1.11638 7.92663 1.11682 7.7533 0.780815 8.9973C0.613709 9.61624 0.792046 10.2768 1.24889 10.7302C2.16573 11.6398 2.07858 11.4897 2.41459 12.7328C2.5817 13.3518 3.06954 13.8355 3.69349 14.0013C4.69882 14.2684 4.77384 14.2263 5.43553 14.8829C6.02983 15.4725 6.95565 15.578 7.6699 15.1377C7.95551 14.961 8.28683 14.8672 8.62514 14.8672C8.96345 14.8672 9.29477 14.961 9.58039 15.1377C10.2942 15.578 11.22 15.4725 11.8143 14.8829ZM4.38707 7.70252C4.38707 5.38128 6.28453 3.49951 8.62492 3.49951C10.9653 3.49951 12.8628 5.38128 12.8628 7.70252C12.8628 10.0238 10.9653 11.9055 8.62492 11.9055C6.28453 11.9055 4.38707 10.0238 4.38707 7.70252Z" fill="#BCBCBC"/>
</svg>
