<svg width="23" height="17" viewBox="0 0 23 17" fill="none" xmlns="http://www.w3.org/2000/svg">
<path d="M19.32 6.99344C19.4673 6.60891 19.55 6.18844 19.55 5.75C19.55 3.84531 18.0047 2.3 16.1 2.3C15.392 2.3 14.7308 2.51562 14.1845 2.88219C13.1891 1.15719 11.3311 0 9.2 0C6.02312 0 3.45 2.57312 3.45 5.75C3.45 5.84703 3.45359 5.94406 3.45719 6.04109C1.44469 6.74906 0 8.66813 0 10.925C0 13.782 2.31797 16.1 5.175 16.1H18.4C20.9408 16.1 23 14.0408 23 11.5C23 9.27547 21.4187 7.4175 19.32 6.99344ZM14.5439 10.1811L10.7561 13.9689C10.5333 14.1917 10.1667 14.1917 9.94391 13.9689L6.15609 10.1811C5.79313 9.81812 6.05188 9.2 6.56219 9.2H8.9125V5.175C8.9125 4.85875 9.17125 4.6 9.4875 4.6H11.2125C11.5287 4.6 11.7875 4.85875 11.7875 5.175V9.2H14.1378C14.6481 9.2 14.9069 9.81812 14.5439 10.1811Z" fill="white"/>
</svg>
