<svg width="15" height="12" viewBox="0 0 15 12" fill="none" xmlns="http://www.w3.org/2000/svg">
<path d="M14.7158 3.78416C14.8301 3.69291 15 3.77827 15 3.92251V9.94194C15 10.722 14.3701 11.3548 13.5938 11.3548H1.40625C0.629883 11.3548 0 10.722 0 9.94194V3.92545C0 3.77827 0.166992 3.69586 0.28418 3.7871C0.94043 4.29927 1.81055 4.94978 4.79883 7.13091C5.41699 7.5842 6.45996 8.5379 7.5 8.53201C8.5459 8.54084 9.60937 7.56654 10.2041 7.13091C13.1924 4.94978 14.0596 4.29633 14.7158 3.78416ZM7.5 7.58715C8.17969 7.59892 9.1582 6.72765 9.65039 6.36854C13.5381 3.53397 13.834 3.28671 14.7305 2.58027C14.9004 2.44782 15 2.24177 15 2.02396V1.46469C15 0.684669 14.3701 0.0518188 13.5938 0.0518188H1.40625C0.629883 0.0518188 0 0.684669 0 1.46469V2.02396C0 2.24177 0.0996094 2.44487 0.269531 2.58027C1.16602 3.28377 1.46191 3.53397 5.34961 6.36854C5.8418 6.72765 6.82031 7.59892 7.5 7.58715Z" fill="white"/>
</svg>
