<svg width="24" height="24" viewBox="0 0 24 24" fill="none" xmlns="http://www.w3.org/2000/svg">
<rect width="24" height="24" rx="4" fill="#BCBCBC"/>
<path d="M11.66 5C7.98 5 5 7.98667 5 11.6667C5 15.3467 7.98 18.3333 11.66 18.3333C15.3467 18.3333 18.3333 15.3467 18.3333 11.6667C18.3333 7.98667 15.3467 5 11.66 5ZM16.28 9H14.3133C14.1 8.16667 13.7933 7.36667 13.3933 6.62667C14.62 7.04667 15.64 7.9 16.28 9ZM11.6667 6.36C12.22 7.16 12.6533 8.04667 12.94 9H10.3933C10.68 8.04667 11.1133 7.16 11.6667 6.36ZM6.50667 13C6.4 12.5733 6.33333 12.1267 6.33333 11.6667C6.33333 11.2067 6.4 10.76 6.50667 10.3333H8.76C8.70667 10.7733 8.66667 11.2133 8.66667 11.6667C8.66667 12.12 8.70667 12.56 8.76 13H6.50667ZM7.05333 14.3333H9.02C9.23333 15.1667 9.54 15.9667 9.94 16.7067C8.71333 16.2867 7.69333 15.44 7.05333 14.3333V14.3333ZM9.02 9H7.05333C7.69333 7.89333 8.71333 7.04667 9.94 6.62667C9.54 7.36667 9.23333 8.16667 9.02 9V9ZM11.6667 16.9733C11.1133 16.1733 10.68 15.2867 10.3933 14.3333H12.94C12.6533 15.2867 12.22 16.1733 11.6667 16.9733ZM13.2267 13H10.1067C10.0467 12.56 10 12.12 10 11.6667C10 11.2133 10.0467 10.7667 10.1067 10.3333H13.2267C13.2867 10.7667 13.3333 11.2133 13.3333 11.6667C13.3333 12.12 13.2867 12.56 13.2267 13ZM13.3933 16.7067C13.7933 15.9667 14.1 15.1667 14.3133 14.3333H16.28C15.64 15.4333 14.62 16.2867 13.3933 16.7067V16.7067ZM14.5733 13C14.6267 12.56 14.6667 12.12 14.6667 11.6667C14.6667 11.2133 14.6267 10.7733 14.5733 10.3333H16.8267C16.9333 10.76 17 11.2067 17 11.6667C17 12.1267 16.9333 12.5733 16.8267 13H14.5733Z" fill="white"/>
</svg>
