<svg width="22" height="22" viewBox="0 0 22 22" fill="none" xmlns="http://www.w3.org/2000/svg">
<path d="M15.3605 5.40508L8.9883 8.33117C8.68012 8.4727 8.43298 8.72101 8.29211 9.03065L5.37974 15.4328C5.04378 16.1713 5.8009 16.9325 6.53639 16.5949L12.9085 13.6688C13.2167 13.5273 13.4639 13.279 13.6047 12.9694L16.5171 6.56718C16.8531 5.82823 16.096 5.06754 15.3605 5.40508ZM11.9453 12.0015C11.3947 12.5546 10.5021 12.5546 9.95159 12.0015C9.40108 11.4484 9.40108 10.5516 9.95159 9.99847C10.5021 9.44536 11.3947 9.44536 11.9453 9.99847C12.4958 10.5516 12.4958 11.4484 11.9453 12.0015ZM10.9484 0C4.90163 0 0 4.92472 0 11C0 17.0753 4.90163 22 10.9484 22C16.9952 22 21.8969 17.0753 21.8969 11C21.8969 4.92472 16.9952 0 10.9484 0ZM10.9484 19.871C6.07991 19.871 2.11905 15.8915 2.11905 11C2.11905 6.10855 6.07991 2.12903 10.9484 2.12903C15.8169 2.12903 19.7778 6.10855 19.7778 11C19.7778 15.8915 15.8169 19.871 10.9484 19.871Z" fill="white"/>
</svg>
