<svg width="16" height="16" viewBox="0 0 16 16" fill="none" xmlns="http://www.w3.org/2000/svg">
<path d="M6.54339 1.01413L7.30593 0.247998C7.62881 -0.0763996 8.15091 -0.0763996 8.47035 0.247998L15.1477 6.95335C15.4706 7.27775 15.4706 7.80231 15.1477 8.12325L8.47035 14.8321C8.14747 15.1565 7.62537 15.1565 7.30593 14.8321L6.54339 14.0659C6.21708 13.7381 6.22395 13.2032 6.55713 12.8822L10.6961 8.92044H0.824365C0.367529 8.92044 0 8.55118 0 8.0922V6.98786C0 6.52888 0.367529 6.15962 0.824365 6.15962H10.6961L6.55713 2.19783C6.22052 1.87688 6.21365 1.34197 6.54339 1.01413Z" fill="#0A0E3F"/>
</svg>
