<svg width="16" height="16" viewBox="0 0 16 16" fill="none" xmlns="http://www.w3.org/2000/svg">
<path d="M6.54339 1.00943L7.30593 0.243298C7.62881 -0.0810993 8.15091 -0.0810993 8.47035 0.243298L15.1477 6.94866C15.4706 7.27305 15.4706 7.79761 15.1477 8.11856L8.47035 14.8274C8.14747 15.1518 7.62537 15.1518 7.30593 14.8274L6.54339 14.0612C6.21708 13.7334 6.22395 13.1985 6.55713 12.8775L10.6961 8.91574H0.824365C0.367529 8.91574 0 8.54648 0 8.0875V6.98317C0 6.52418 0.367529 6.15492 0.824365 6.15492H10.6961L6.55713 2.19313C6.22052 1.87219 6.21365 1.33728 6.54339 1.00943Z" fill="#F1F1F2"/>
</svg>
