<svg width="21" height="21" viewBox="0 0 21 21" fill="none" xmlns="http://www.w3.org/2000/svg">
<path d="M20.7109 18.1558L16.622 14.067C16.4375 13.8824 16.1873 13.7799 15.9248 13.7799H15.2563C16.3882 12.3322 17.0608 10.5113 17.0608 8.53042C17.0608 3.81818 13.2427 0 8.53042 0C3.81818 0 0 3.81818 0 8.53042C0 13.2427 3.81818 17.0608 8.53042 17.0608C10.5113 17.0608 12.3322 16.3882 13.7799 15.2563V15.9248C13.7799 16.1873 13.8824 16.4375 14.067 16.622L18.1558 20.7109C18.5414 21.0964 19.1647 21.0964 19.5461 20.7109L20.7068 19.5502C21.0923 19.1647 21.0923 18.5414 20.7109 18.1558ZM8.53042 13.7799C5.6309 13.7799 3.28093 11.434 3.28093 8.53042C3.28093 5.6309 5.62679 3.28093 8.53042 3.28093C11.4299 3.28093 13.7799 5.62679 13.7799 8.53042C13.7799 11.4299 11.434 13.7799 8.53042 13.7799Z" fill="#49494A"/>
</svg>
